<svg width="27" height="28" viewBox="0 0 27 28" fill="none" xmlns="http://www.w3.org/2000/svg">
<path d="M1.76583 0.655151H25.3189C26.13 0.655151 26.7755 1.30067 26.7755 2.1117V25.6814C26.7755 26.4758 26.13 27.1379 25.3189 27.1379H18.5658V16.8758H22.0086L22.5217 12.8869H18.5658V10.3379C18.5658 9.17929 18.8969 8.38481 20.552 8.38481H22.6707V4.80963C22.3065 4.75998 21.0486 4.66067 19.592 4.66067C16.53 4.66067 14.4444 6.51446 14.4444 9.94067V12.8869H10.9851V16.8758H14.4444V27.1379H1.76583C1.37799 27.1379 1.00578 26.985 0.729995 26.7123C0.454205 26.4396 0.297082 26.0692 0.292725 25.6814V2.1117C0.292725 1.30067 0.954794 0.655151 1.76583 0.655151Z" fill="white"/>
</svg>
