<svg width="28" height="28" viewBox="0 0 28 28" fill="none" xmlns="http://www.w3.org/2000/svg">
<path fill-rule="evenodd" clip-rule="evenodd" d="M9.95874 1.48298C6.66821 2.58624 3.86436 4.99916 2.30263 8.05271C1.75787 9.10616 1.36561 10.2237 1.1259 11.3838C0.530272 14.2594 0.944311 17.3272 2.29537 19.9466C3.17431 21.6549 4.43821 23.1781 5.96363 24.3668C7.40912 25.4914 9.08706 26.3313 10.874 26.7939C13.1258 27.3847 15.5228 27.3705 17.7892 26.8651C19.8375 26.4024 21.777 25.4416 23.3242 24.0464C24.9586 22.5731 26.1281 20.637 26.7455 18.5515C27.4209 16.2809 27.5081 13.8537 27.087 11.5191C22.8521 11.5191 18.61 11.5191 14.3751 11.5191C14.3751 13.2416 14.3751 14.9641 14.3751 16.6866C16.8303 16.6866 19.2855 16.6866 21.7407 16.6866C21.4574 18.338 20.455 19.8469 19.0385 20.7794C18.1451 21.3702 17.1209 21.7474 16.0604 21.9325C14.9998 22.1104 13.8958 22.1318 12.8352 21.9253C11.7529 21.7118 10.7287 21.2705 9.82797 20.6513C8.38975 19.6619 7.29291 18.217 6.73359 16.587C6.15975 14.9285 6.15248 13.085 6.73359 11.4337C7.14037 10.2664 7.80864 9.19155 8.69484 8.30895C9.78441 7.21282 11.2009 6.42984 12.7335 6.10956C14.041 5.83908 15.4211 5.8889 16.6996 6.26613C17.7892 6.58645 18.7916 7.17721 19.6124 7.94595C20.4405 7.13453 21.2685 6.32308 22.0966 5.51166C22.5324 5.07748 22.9901 4.6575 23.4114 4.20908C22.1547 3.07024 20.6729 2.15202 19.0603 1.56837C16.1548 0.514951 12.8861 0.493579 9.95874 1.48298Z" fill="white"/>
<path fill-rule="evenodd" clip-rule="evenodd" d="M9.95978 1.4838C12.8798 0.494401 16.1558 0.515773 19.0614 1.56209C20.6739 2.14574 22.1485 3.05682 23.4124 4.2028C22.9911 4.65122 22.5335 5.07116 22.0976 5.50535C21.2696 6.3168 20.4415 7.12822 19.6134 7.93964C18.7926 7.17093 17.7902 6.58727 16.7006 6.25985C15.4222 5.88262 14.042 5.82567 12.7346 6.10324C11.2092 6.42356 9.79272 7.2065 8.69585 8.30267C7.80969 9.17817 7.14138 10.2601 6.73464 11.4274C5.26007 10.3028 3.78551 9.18527 2.30368 8.06067C3.86541 4.99998 6.66926 2.58706 9.95978 1.4838Z" fill="#EA4335"/>
<path fill-rule="evenodd" clip-rule="evenodd" d="M1.13192 11.3747C1.37163 10.2216 1.76389 9.097 2.30869 8.04358C3.78322 9.16818 5.25779 10.2857 6.73962 11.4103C6.15851 13.0688 6.15851 14.9123 6.73962 16.5636C5.26505 17.6882 3.79052 18.8128 2.31595 19.9303C0.950335 17.3181 0.536296 14.2503 1.13192 11.3747Z" fill="#FBBC05"/>
<path fill-rule="evenodd" clip-rule="evenodd" d="M14.3745 11.5091C18.6093 11.5091 22.8514 11.5091 27.0864 11.5091C27.5074 13.8366 27.4131 16.2638 26.7448 18.5415C26.1274 20.627 24.9579 22.5631 23.3236 24.0365C21.8926 22.9474 20.4616 21.8584 19.0306 20.7694C20.4471 19.8369 21.4495 18.328 21.7328 16.6766C19.2776 16.6766 16.8224 16.6766 14.3672 16.6766C14.3745 14.9541 14.3745 13.2316 14.3745 11.5091Z" fill="#4285F4"/>
<path fill-rule="evenodd" clip-rule="evenodd" d="M2.30368 19.9361C3.77825 18.8186 5.25281 17.694 6.72734 16.5694C7.29393 18.1994 8.3835 19.6443 9.82176 20.6337C10.7225 21.2529 11.7539 21.6942 12.829 21.9078C13.8895 22.1213 14.9863 22.0928 16.0541 21.9149C17.1146 21.7298 18.1389 21.3526 19.0323 20.7618C20.4633 21.8508 21.8943 22.9398 23.3252 24.0289C21.7781 25.4311 19.8386 26.3849 17.7902 26.8475C15.5239 27.3529 13.1268 27.3671 10.875 26.7764C9.08811 26.3137 7.41017 25.4809 5.96465 24.3492C4.44652 23.1676 3.18262 21.6444 2.30368 19.9361Z" fill="#34A853"/>
</svg>
