<svg width="16" height="16" viewBox="0 0 16 16" fill="none" xmlns="http://www.w3.org/2000/svg">
<path d="M6.50705 9.57787C6.12371 9.1952 5.89038 8.6752 5.89038 8.09187C5.89038 6.9232 6.83171 5.9812 7.99971 5.9812C8.57771 5.9812 9.10971 6.2152 9.48638 6.59787" stroke="#444444" stroke-width="1.5" stroke-linecap="round" stroke-linejoin="round"/>
<path d="M10.0698 8.46582C9.91509 9.32582 9.23775 10.0045 8.37842 10.1605" stroke="#444444" stroke-width="1.5" stroke-linecap="round" stroke-linejoin="round"/>
<path d="M4.43634 11.6482C3.37834 10.8176 2.48234 9.60423 1.83301 8.09157C2.48901 6.57223 3.39101 5.35223 4.45567 4.5149C5.51367 3.67757 6.73434 3.2229 7.99967 3.2229C9.27234 3.2229 10.4923 3.68423 11.557 4.52757" stroke="#444444" stroke-width="1.5" stroke-linecap="round" stroke-linejoin="round"/>
<path d="M12.965 5.9939C13.4236 6.60323 13.827 7.30656 14.1663 8.09123C12.855 11.1292 10.5376 12.9592 7.99965 12.9592C7.42431 12.9592 6.85698 12.8659 6.31165 12.6839" stroke="#444444" stroke-width="1.5" stroke-linecap="round" stroke-linejoin="round"/>
<path d="M13.2579 2.83301L2.74194 13.349" stroke="#444444" stroke-width="1.5" stroke-linecap="round" stroke-linejoin="round"/>
</svg>
