<svg width="357" height="275" viewBox="0 0 357 275" fill="none" xmlns="http://www.w3.org/2000/svg">
<g filter="url(#filter0_d_311_5920)">
<rect x="307" y="215.16" width="257" height="174.16" rx="20" transform="rotate(180 307 215.16)" fill="white" shape-rendering="crispEdges"/>
<rect x="245.965" y="170.901" width="37.0354" height="18.5177" rx="9.25886" fill="#DAE5F7"/>
<circle cx="255.227" cy="180.16" r="6.4812" fill="#2F4DC4"/>
<path d="M95.94 184.16V177.06H98.27C98.91 177.06 99.4233 177.243 99.81 177.61C100.197 177.977 100.39 178.42 100.39 178.94C100.39 179.593 100.137 180.077 99.63 180.39C100.45 180.69 100.86 181.257 100.86 182.09C100.86 182.69 100.64 183.187 100.2 183.58C99.7667 183.967 99.1933 184.16 98.48 184.16H95.94ZM96.87 183.32H98.52C98.9867 183.32 99.34 183.213 99.58 183C99.8267 182.78 99.95 182.487 99.95 182.12C99.95 181.76 99.8267 181.47 99.58 181.25C99.34 181.023 98.99 180.91 98.53 180.91H96.87V183.32ZM96.87 180.11H98.27C98.6433 180.11 98.9367 180.01 99.15 179.81C99.37 179.603 99.48 179.337 99.48 179.01C99.48 178.697 99.37 178.433 99.15 178.22C98.93 178.007 98.6367 177.9 98.27 177.9H96.87V180.11ZM104.159 184.26C103.466 184.26 102.882 184.007 102.409 183.5C101.942 182.993 101.709 182.38 101.709 181.66C101.709 180.94 101.942 180.327 102.409 179.82C102.882 179.313 103.466 179.06 104.159 179.06C104.526 179.06 104.866 179.143 105.179 179.31C105.499 179.47 105.746 179.677 105.919 179.93V179.16H106.779V184.16H105.919V183.39C105.746 183.643 105.499 183.853 105.179 184.02C104.866 184.18 104.526 184.26 104.159 184.26ZM104.289 183.47C104.782 183.47 105.189 183.297 105.509 182.95C105.829 182.603 105.989 182.173 105.989 181.66C105.989 181.147 105.829 180.717 105.509 180.37C105.189 180.023 104.782 179.85 104.289 179.85C103.789 179.85 103.379 180.023 103.059 180.37C102.739 180.717 102.579 181.147 102.579 181.66C102.579 182.173 102.739 182.603 103.059 182.95C103.379 183.297 103.789 183.47 104.289 183.47ZM108.398 184.16V179.16H109.258V179.93C109.598 179.35 110.128 179.06 110.848 179.06C111.415 179.06 111.871 179.243 112.218 179.61C112.565 179.977 112.738 180.467 112.738 181.08V184.16H111.888V181.21C111.888 180.79 111.781 180.46 111.568 180.22C111.355 179.973 111.068 179.85 110.708 179.85C110.295 179.85 109.948 180.013 109.668 180.34C109.395 180.667 109.258 181.113 109.258 181.68V184.16H108.398ZM117.857 184.16L115.147 181.66V184.16H114.287V176.66H115.147V181.11L117.327 179.16H118.467L116.007 181.37L119.017 184.16H117.857ZM123.132 184.16V177.94H120.922V177.06H126.252V177.94H124.042V184.16H123.132ZM126.337 184.16V179.16H127.197V180.13C127.291 179.823 127.471 179.577 127.737 179.39C128.011 179.203 128.297 179.11 128.597 179.11C128.744 179.11 128.874 179.123 128.987 179.15V180.04C128.867 179.987 128.711 179.96 128.517 179.96C128.171 179.96 127.864 180.11 127.597 180.41C127.331 180.71 127.197 181.133 127.197 181.68V184.16H126.337ZM131.893 184.26C131.2 184.26 130.617 184.007 130.143 183.5C129.677 182.993 129.443 182.38 129.443 181.66C129.443 180.94 129.677 180.327 130.143 179.82C130.617 179.313 131.2 179.06 131.893 179.06C132.26 179.06 132.6 179.143 132.913 179.31C133.233 179.47 133.48 179.677 133.653 179.93V179.16H134.513V184.16H133.653V183.39C133.48 183.643 133.233 183.853 132.913 184.02C132.6 184.18 132.26 184.26 131.893 184.26ZM132.023 183.47C132.517 183.47 132.923 183.297 133.243 182.95C133.563 182.603 133.723 182.173 133.723 181.66C133.723 181.147 133.563 180.717 133.243 180.37C132.923 180.023 132.517 179.85 132.023 179.85C131.523 179.85 131.113 180.023 130.793 180.37C130.473 180.717 130.313 181.147 130.313 181.66C130.313 182.173 130.473 182.603 130.793 182.95C131.113 183.297 131.523 183.47 132.023 183.47ZM136.132 184.16V179.16H136.992V179.93C137.332 179.35 137.862 179.06 138.582 179.06C139.149 179.06 139.606 179.243 139.952 179.61C140.299 179.977 140.472 180.467 140.472 181.08V184.16H139.622V181.21C139.622 180.79 139.516 180.46 139.302 180.22C139.089 179.973 138.802 179.85 138.442 179.85C138.029 179.85 137.682 180.013 137.402 180.34C137.129 180.667 136.992 181.113 136.992 181.68V184.16H136.132ZM143.631 184.26C143.071 184.26 142.601 184.123 142.221 183.85C141.848 183.577 141.641 183.197 141.601 182.71H142.481C142.534 182.99 142.668 183.197 142.881 183.33C143.101 183.463 143.354 183.53 143.641 183.53C143.928 183.53 144.158 183.473 144.331 183.36C144.511 183.247 144.601 183.083 144.601 182.87C144.601 182.67 144.534 182.507 144.401 182.38C144.274 182.253 144.064 182.15 143.771 182.07L143.051 181.88C142.191 181.653 141.761 181.163 141.761 180.41C141.761 180.003 141.921 179.677 142.241 179.43C142.568 179.183 142.984 179.06 143.491 179.06C144.004 179.06 144.424 179.197 144.751 179.47C145.084 179.737 145.271 180.077 145.311 180.49H144.451C144.384 180.27 144.264 180.097 144.091 179.97C143.924 179.843 143.724 179.78 143.491 179.78C143.244 179.78 143.038 179.837 142.871 179.95C142.711 180.063 142.631 180.213 142.631 180.4C142.631 180.58 142.691 180.727 142.811 180.84C142.931 180.953 143.124 181.047 143.391 181.12L144.191 181.33C145.044 181.543 145.471 182.037 145.471 182.81C145.471 183.29 145.301 183.653 144.961 183.9C144.621 184.14 144.178 184.26 143.631 184.26ZM147.041 184.16V179.95H145.981V179.16H147.041V178.15C147.041 177.65 147.181 177.267 147.461 177C147.741 176.733 148.111 176.6 148.571 176.6C148.844 176.6 149.104 176.643 149.351 176.73V177.49C149.197 177.423 148.991 177.39 148.731 177.39C148.444 177.39 148.234 177.453 148.101 177.58C147.967 177.707 147.901 177.927 147.901 178.24V179.16H149.351V179.95H147.901V184.16H147.041ZM152.295 184.26C151.569 184.26 150.965 184.013 150.485 183.52C150.012 183.027 149.775 182.407 149.775 181.66C149.775 180.907 150.005 180.287 150.465 179.8C150.932 179.307 151.549 179.06 152.315 179.06C153.089 179.06 153.695 179.333 154.135 179.88C154.575 180.427 154.769 181.097 154.715 181.89H150.645C150.659 182.343 150.825 182.723 151.145 183.03C151.465 183.33 151.852 183.48 152.305 183.48C152.985 183.48 153.469 183.2 153.755 182.64H154.635C154.509 183.107 154.239 183.493 153.825 183.8C153.412 184.107 152.902 184.26 152.295 184.26ZM153.275 180.18C153.002 179.94 152.672 179.82 152.285 179.82C151.899 179.82 151.552 179.937 151.245 180.17C150.945 180.403 150.759 180.75 150.685 181.21H153.805C153.725 180.757 153.549 180.413 153.275 180.18ZM155.956 184.16V179.16H156.816V180.13C156.91 179.823 157.09 179.577 157.356 179.39C157.63 179.203 157.916 179.11 158.216 179.11C158.363 179.11 158.493 179.123 158.606 179.15V180.04C158.486 179.987 158.33 179.96 158.136 179.96C157.79 179.96 157.483 180.11 157.216 180.41C156.95 180.71 156.816 181.133 156.816 181.68V184.16H155.956ZM161.141 184.26C160.581 184.26 160.111 184.123 159.731 183.85C159.357 183.577 159.151 183.197 159.111 182.71H159.991C160.044 182.99 160.177 183.197 160.391 183.33C160.611 183.463 160.864 183.53 161.151 183.53C161.437 183.53 161.667 183.473 161.841 183.36C162.021 183.247 162.111 183.083 162.111 182.87C162.111 182.67 162.044 182.507 161.911 182.38C161.784 182.253 161.574 182.15 161.281 182.07L160.561 181.88C159.701 181.653 159.271 181.163 159.271 180.41C159.271 180.003 159.431 179.677 159.751 179.43C160.077 179.183 160.494 179.06 161.001 179.06C161.514 179.06 161.934 179.197 162.261 179.47C162.594 179.737 162.781 180.077 162.821 180.49H161.961C161.894 180.27 161.774 180.097 161.601 179.97C161.434 179.843 161.234 179.78 161.001 179.78C160.754 179.78 160.547 179.837 160.381 179.95C160.221 180.063 160.141 180.213 160.141 180.4C160.141 180.58 160.201 180.727 160.321 180.84C160.441 180.953 160.634 181.047 160.901 181.12L161.701 181.33C162.554 181.543 162.981 182.037 162.981 182.81C162.981 183.29 162.811 183.653 162.471 183.9C162.131 184.14 161.687 184.26 161.141 184.26Z" fill="#483D3D"/>
<path d="M89.3822 179.139C89.9793 179.139 90.2286 178.329 89.7436 177.955L82.3633 172.286C82.2579 172.204 82.1306 172.16 82 172.16C81.8693 172.16 81.742 172.204 81.6366 172.286L74.2563 177.955C73.7713 178.327 74.0206 179.139 74.6197 179.139H75.8159V186.772H74.4245C74.3394 186.772 74.2699 186.846 74.2699 186.936V187.997C74.2699 188.087 74.3394 188.16 74.4245 188.16H89.5754C89.6605 188.16 89.73 188.087 89.73 187.997V186.936C89.73 186.846 89.6605 186.772 89.5754 186.772H88.184V179.139H89.3822ZM79.4683 186.772H77.2073V179.139H79.4683V186.772ZM83.1208 186.772H80.8598V179.139H83.1208V186.772ZM86.7926 186.772H84.5122V179.139H86.7926V186.772Z" fill="#0D3883"/>
<line x1="74" y1="152.765" x2="283" y2="152.765" stroke="#E5EFFF" stroke-width="0.790786"/>
<rect x="245.965" y="117.901" width="37.0354" height="18.5177" rx="9.25886" fill="#2F4DC4"/>
<circle cx="273.743" cy="127.161" r="6.4812" fill="white"/>
<g clip-path="url(#clip0_311_5920)">
<path d="M107.773 121.7H107.804C107.988 121.7 108.095 121.838 108.095 122.022V130.289C108.095 130.427 107.988 130.58 107.804 130.58C107.666 130.58 107.512 130.473 107.512 130.289V121.991C107.512 121.838 107.62 121.7 107.773 121.7ZM99.9048 122.129H105.319C105.503 122.129 105.61 122.313 105.61 122.451C105.61 122.59 105.503 122.743 105.319 122.743H100.196V126.194H104.828C104.966 126.194 105.12 126.301 105.12 126.485C105.12 126.623 105.012 126.777 104.828 126.777H100.242V130.335C100.212 130.519 100.058 130.657 99.8895 130.657C99.7054 130.657 99.5674 130.519 99.5674 130.335V122.467H99.5981C99.5827 122.267 99.7361 122.129 99.9048 122.129ZM115.626 124.691C115.626 124.507 115.488 124.399 115.334 124.399C115.15 124.399 115.043 124.537 115.043 124.691V128.142C115.043 129.323 114.077 130.243 112.896 130.212C111.638 130.212 110.917 129.399 110.917 128.111V124.691C110.917 124.507 110.779 124.399 110.626 124.399C110.488 124.399 110.334 124.537 110.334 124.691V128.218C110.334 129.675 111.27 130.749 112.804 130.749C113.739 130.78 114.629 130.289 115.058 129.461V130.35C115.058 130.534 115.196 130.642 115.35 130.642C115.534 130.642 115.641 130.504 115.641 130.35H115.61V124.691H115.626ZM121.07 124.737C121.07 124.875 120.932 124.982 120.779 124.982H118.801V128.939C118.801 129.829 119.307 130.151 120.058 130.151C120.304 130.151 120.564 130.12 120.779 130.044C120.917 130.044 121.024 130.151 121.024 130.289C121.024 130.396 120.948 130.504 120.84 130.534C120.549 130.642 120.227 130.672 119.951 130.672C119.015 130.672 118.233 130.136 118.233 129.001V124.982H117.558C117.42 124.982 117.267 124.844 117.267 124.691C117.267 124.553 117.405 124.445 117.558 124.445H118.233V122.743C118.233 122.605 118.34 122.451 118.478 122.451H118.509C118.647 122.451 118.801 122.59 118.801 122.743V124.445H120.779C120.932 124.445 121.07 124.583 121.07 124.737ZM125.672 124.982C125.81 124.982 125.963 124.875 125.963 124.737C125.963 124.599 125.825 124.445 125.672 124.445H123.693V122.743C123.693 122.605 123.555 122.451 123.402 122.451H123.371C123.233 122.451 123.126 122.59 123.126 122.743V124.445H122.451C122.313 124.445 122.159 124.553 122.159 124.691C122.159 124.829 122.297 124.982 122.451 124.982H123.126V129.001C123.126 130.136 123.908 130.672 124.843 130.672C125.135 130.672 125.457 130.642 125.733 130.534C125.84 130.504 125.917 130.396 125.917 130.289C125.917 130.151 125.81 130.044 125.672 130.044C125.457 130.12 125.212 130.151 124.951 130.151C124.199 130.151 123.693 129.829 123.693 128.939V124.982H125.672ZM127.037 127.513C127.037 125.703 128.294 124.277 129.981 124.277C131.745 124.277 132.85 125.703 132.85 127.513C132.85 127.651 132.712 127.804 132.558 127.804H127.681C127.788 129.338 128.908 130.228 130.12 130.228C130.871 130.228 131.623 129.905 132.129 129.369C132.159 129.338 132.236 129.292 132.313 129.292C132.451 129.292 132.604 129.43 132.604 129.583C132.604 129.66 132.574 129.721 132.497 129.798C131.883 130.473 130.994 130.826 130.089 130.795C128.432 130.795 127.037 129.507 127.037 127.559V127.513ZM135.181 126.224C135.58 125.197 136.546 124.445 137.65 124.369C137.834 124.369 137.972 124.507 137.972 124.721C137.972 124.859 137.865 125.044 137.681 125.044H137.65C136.316 125.182 135.181 126.148 135.181 128.142V130.427C135.15 130.611 135.043 130.718 134.859 130.718C134.721 130.718 134.567 130.58 134.567 130.427V124.721C134.598 124.537 134.705 124.43 134.889 124.43C135.028 124.43 135.181 124.568 135.181 124.721V126.224ZM147.435 124.047C147.006 124.047 146.653 124.338 146.546 124.752L145.503 128.065L144.46 124.752C144.353 124.323 143.954 124.001 143.494 124.001H143.386C142.926 124.001 142.528 124.292 142.42 124.752L141.377 128.034L140.38 124.721C140.273 124.323 139.92 124.016 139.491 124.016H139.46C139 124.016 138.632 124.415 138.632 124.875C138.632 125.013 138.662 125.166 138.708 125.304L140.319 129.905C140.426 130.366 140.825 130.688 141.316 130.718H141.393C141.853 130.718 142.251 130.396 142.389 129.936L143.432 126.654L144.475 129.936C144.583 130.396 145.012 130.718 145.472 130.718H145.549C146.055 130.718 146.485 130.396 146.592 129.905L148.202 125.274C148.233 125.166 148.279 125.028 148.279 124.921V124.89C148.264 124.415 147.911 124.047 147.435 124.047ZM149.951 124.369C150.626 124.154 151.316 124.016 152.037 124.047C153.034 124.047 153.755 124.338 154.291 124.798C154.797 125.366 155.043 126.117 155.012 126.869V129.783C155.012 130.289 154.613 130.672 154.123 130.672C153.662 130.672 153.264 130.35 153.233 129.89C152.727 130.427 152.006 130.749 151.255 130.703C150.074 130.703 149.031 129.997 149.031 128.709C149.031 127.283 150.104 126.608 151.653 126.608C152.19 126.608 152.727 126.685 153.233 126.853V126.746C153.233 125.964 152.773 125.565 151.837 125.565C151.408 125.565 150.978 125.596 150.549 125.749C150.472 125.78 150.365 125.78 150.304 125.78C149.874 125.81 149.521 125.488 149.521 125.074C149.491 124.767 149.659 124.476 149.951 124.369ZM160.534 124.66C160.641 124.261 160.994 124.016 161.393 124.016C161.899 124.016 162.282 124.415 162.282 124.875V124.905C162.282 125.044 162.251 125.197 162.175 125.335L160.242 129.936C160.058 130.396 159.629 130.688 159.169 130.718H159.061C158.555 130.688 158.172 130.366 158.018 129.905L156.009 125.304C155.932 125.166 155.902 125.013 155.902 124.875C155.932 124.369 156.331 124.016 156.791 124.016C157.221 124.016 157.574 124.307 157.681 124.691L159.077 128.433L160.534 124.66ZM163.018 127.651C163.095 129.43 164.629 130.826 166.423 130.718C167.251 130.718 168.034 130.473 168.678 129.936C168.862 129.798 168.923 129.614 168.923 129.399V129.369C168.923 128.97 168.601 128.663 168.202 128.663C168.064 128.663 167.88 128.694 167.773 128.801C167.374 129.093 166.914 129.261 166.439 129.231C165.656 129.261 164.966 128.724 164.859 127.942H168.555C169.015 127.912 169.383 127.513 169.337 127.053V126.915C169.337 125.304 167.942 123.955 166.224 124.001C164.322 124.001 162.988 125.534 162.988 127.39V127.651H163.018Z" fill="#10112B"/>
<path d="M127.635 127.221C127.742 125.872 128.708 124.829 129.935 124.829C131.331 124.829 132.083 125.964 132.159 127.221H127.635ZM153.248 128.295C153.248 129.001 152.635 129.43 151.776 129.399C151.208 129.399 150.779 129.108 150.779 128.617V128.587C150.779 128.05 151.285 127.697 152.067 127.697C152.466 127.697 152.896 127.804 153.248 127.942V128.295ZM166.239 125.473C165.488 125.473 164.981 126.01 164.843 126.869H167.604C167.497 126.041 166.991 125.473 166.239 125.473Z" fill="white"/>
<path d="M90.3038 117.605C98.3712 116.393 93.2025 123.264 90.7025 125.197C92.4203 126.516 94.1841 128.372 94.9357 130.473C96.3314 134.323 92.8958 134.89 90.3038 133.924C87.4663 132.927 84.9663 130.795 83.3099 128.295C82.8498 128.295 82.3436 128.218 81.8682 128.08C82.8038 130.718 83.2025 133.418 82.9418 135.626C82.9418 131.179 80.8252 126.761 77.7731 123.08C76.6995 121.792 77.8038 120.841 78.77 122.083C79.4295 122.988 80.0277 123.924 80.5645 124.89C81.6228 121.271 86.7762 118.111 90.3038 117.605ZM89.1535 124.154C90.7332 123.188 95.5338 118.034 91.0553 118.494C88.4786 118.786 85.3498 121.163 84.0614 122.697C85.8559 122.482 87.6811 123.264 89.1535 124.154ZM84.7056 128.157C86.1473 129.767 88.1105 131.332 90.2271 131.899C91.4541 132.221 92.8038 132.083 92.313 130.335C91.8068 128.725 90.5185 127.314 89.2608 126.24C88.9081 126.485 88.5093 126.746 88.1105 126.915C87.0369 127.513 85.8866 127.942 84.7056 128.157Z" fill="#EBA12A"/>
<path d="M84.0153 123.832C85.2423 123.724 86.5613 124.369 87.5736 125.013C86.6073 125.473 85.5337 125.764 84.4141 125.826C82.773 125.841 82.4356 123.985 84.0153 123.832Z" fill="white"/>
</g>
<line x1="74" y1="100.765" x2="283" y2="100.765" stroke="#E5EFFF" stroke-width="0.790786"/>
<rect x="245.965" y="65.8213" width="37.0354" height="18.5177" rx="9.25886" fill="#2F4DC4"/>
<circle cx="273.743" cy="75.0808" r="6.4812" fill="white"/>
<path d="M87.811 68.9219H77.4528C77.1049 68.9219 76.8086 69.2182 76.8086 69.5789V70.7513C76.8086 71.1121 77.1049 71.4084 77.4528 71.4084H87.811C88.1718 71.4084 88.4552 71.1121 88.4681 70.7513V69.5918C88.4681 69.2182 88.1718 68.9219 87.811 68.9219ZM87.811 75.428H77.4528C77.2853 75.428 77.1178 75.4924 77.0018 75.6213C76.873 75.7501 76.8086 75.9047 76.8086 76.0851V77.2575C76.8086 77.6182 77.1049 77.9145 77.4528 77.9145H87.811C88.1718 77.9145 88.4552 77.6311 88.4681 77.2575V76.0851C88.4552 75.7114 88.1718 75.428 87.811 75.428ZM83.289 78.6746H77.4528C77.2853 78.6746 77.1178 78.7391 77.0018 78.8679C76.8859 78.9967 76.8086 79.1513 76.8086 79.3317V80.5041C76.8086 80.8648 77.1049 81.1611 77.4528 81.1611H83.2761C83.6368 81.1611 83.9202 80.8648 83.9202 80.517V79.3446C83.9331 78.9581 83.6497 78.6618 83.289 78.6746ZM88.4681 72.1685H77.4528C77.2853 72.1685 77.1178 72.2329 77.0018 72.3618C76.8859 72.4906 76.8086 72.6452 76.8086 72.8256V73.998C76.8086 74.3587 77.1049 74.655 77.4528 74.655H88.4552C88.816 74.655 89.0994 74.3587 89.0994 73.998V72.8256C89.1123 72.4648 88.816 72.1814 88.4681 72.1685Z" fill="#00C3F7"/>
<path d="M100.514 71.5502C100.192 71.2153 99.8182 70.9576 99.3931 70.7772C98.9679 70.5969 98.517 70.5067 98.0532 70.5067C97.6023 70.4938 97.1643 70.5969 96.752 70.7901C96.4814 70.919 96.2367 71.0993 96.0305 71.3183V71.1122C96.0305 71.0091 95.9919 70.9061 95.9274 70.8288C95.863 70.7515 95.76 70.6999 95.644 70.6999H94.214C94.1109 70.6999 94.0078 70.7386 93.9434 70.8288C93.8661 70.9061 93.8274 71.0091 93.8403 71.1122V80.749C93.8403 80.8521 93.879 80.9552 93.9434 81.0325C94.0207 81.1098 94.1109 81.1484 94.214 81.1484H95.6827C95.7857 81.1484 95.8759 81.1098 95.9532 81.0325C96.0305 80.968 96.0821 80.865 96.0692 80.749V77.4509C96.2753 77.6828 96.5459 77.8502 96.8422 77.9533C97.2287 78.095 97.6281 78.1723 98.0403 78.1723C98.5041 78.1723 98.9679 78.0821 99.3931 77.9018C99.8182 77.7214 100.205 77.4637 100.527 77.1288C100.862 76.7809 101.119 76.3686 101.3 75.9177C101.506 75.4153 101.596 74.8742 101.583 74.3331C101.596 73.792 101.493 73.2509 101.3 72.7355C101.107 72.3104 100.849 71.8981 100.514 71.5502ZM99.1998 75.0417C99.1225 75.2478 99.0066 75.4282 98.852 75.5956C98.5557 75.9177 98.1305 76.0981 97.6925 76.0981C97.4735 76.0981 97.2544 76.0594 97.0483 75.9564C96.8551 75.8662 96.6747 75.7502 96.5201 75.5956C96.3655 75.441 96.2495 75.2478 96.1722 75.0417C96.0047 74.6036 96.0047 74.1269 96.1722 73.6889C96.2495 73.4828 96.3784 73.3024 96.5201 73.1478C96.6747 72.9932 96.8551 72.8644 97.0483 72.7742C97.2544 72.684 97.4735 72.6325 97.6925 72.6325C97.9244 72.6325 98.1305 72.6711 98.3495 72.7742C98.5428 72.8644 98.7232 72.9803 98.8649 73.1349C99.0195 73.2895 99.1225 73.4699 99.2127 73.676C99.3673 74.1269 99.3544 74.6036 99.1998 75.0417ZM109.455 70.7128H107.999C107.896 70.7128 107.793 70.7515 107.729 70.8288C107.651 70.9061 107.613 71.0091 107.613 71.1251V71.3055C107.432 71.0864 107.2 70.919 106.956 70.803C106.556 70.6098 106.118 70.5196 105.68 70.5196C104.74 70.5196 103.851 70.8932 103.181 71.5502C102.833 71.8981 102.562 72.3104 102.382 72.7613C102.176 73.2637 102.073 73.8048 102.086 74.3588C102.073 74.8999 102.176 75.441 102.382 75.9564C102.575 76.4073 102.833 76.8196 103.181 77.1674C103.838 77.8374 104.74 78.211 105.667 78.211C106.105 78.2239 106.543 78.1208 106.943 77.9275C107.188 77.7987 107.432 77.6312 107.613 77.4251V77.6183C107.613 77.7214 107.651 77.8245 107.729 77.9018C107.806 77.9662 107.896 78.0177 107.999 78.0177H109.455C109.558 78.0177 109.661 77.9791 109.726 77.9018C109.803 77.8245 109.842 77.7214 109.842 77.6183V71.138C109.842 71.0349 109.803 70.9318 109.738 70.8545C109.661 70.7644 109.558 70.7128 109.455 70.7128ZM107.484 75.0417C107.407 75.2478 107.291 75.4282 107.136 75.5956C106.981 75.7502 106.814 75.8791 106.621 75.9693C106.208 76.1625 105.732 76.1625 105.319 75.9693C105.126 75.8791 104.946 75.7502 104.791 75.5956C104.637 75.441 104.521 75.2478 104.443 75.0417C104.289 74.6036 104.289 74.1269 104.443 73.6889C104.521 73.4828 104.637 73.3153 104.791 73.1478C104.946 72.9932 105.113 72.8644 105.319 72.7742C105.732 72.5809 106.208 72.5809 106.608 72.7742C106.801 72.8644 106.981 72.9803 107.123 73.1349C107.265 73.2895 107.381 73.4699 107.471 73.676C107.651 74.1269 107.651 74.6036 107.484 75.0417ZM123.962 74.1656C123.756 73.9852 123.511 73.8306 123.253 73.7275C122.983 73.6116 122.686 73.5343 122.403 73.4699L121.295 73.2509C121.012 73.1993 120.805 73.122 120.702 73.0318C120.612 72.9674 120.548 72.8644 120.548 72.7484C120.548 72.6325 120.612 72.5294 120.754 72.4392C120.947 72.3361 121.153 72.2846 121.372 72.2975C121.656 72.2975 121.939 72.3619 122.197 72.465C122.454 72.5809 122.699 72.6969 122.931 72.8515C123.253 73.0576 123.537 73.019 123.73 72.7871L124.258 72.1815C124.361 72.0785 124.413 71.9496 124.426 71.8079C124.413 71.6533 124.335 71.5245 124.219 71.4214C124 71.2282 123.64 71.022 123.163 70.8159C122.686 70.6098 122.081 70.5067 121.372 70.5067C120.934 70.4938 120.509 70.5582 120.097 70.6871C119.749 70.803 119.414 70.9705 119.118 71.1895C118.847 71.3956 118.641 71.6533 118.486 71.9625C118.345 72.2588 118.267 72.5809 118.267 72.903C118.267 73.5085 118.448 73.9981 118.808 74.3588C119.169 74.7196 119.646 74.9644 120.238 75.0803L121.398 75.338C121.643 75.3766 121.9 75.4539 122.132 75.5699C122.261 75.6214 122.339 75.7502 122.339 75.892C122.339 76.0208 122.274 76.1367 122.132 76.2398C121.991 76.3429 121.759 76.4073 121.45 76.4073C121.14 76.4073 120.818 76.3429 120.535 76.2012C120.264 76.0723 120.019 75.9048 119.788 75.7116C119.685 75.6343 119.581 75.5699 119.453 75.5183C119.324 75.4797 119.156 75.5183 118.989 75.6601L118.358 76.1367C118.177 76.2656 118.087 76.4846 118.139 76.6907C118.177 76.9098 118.345 77.1159 118.667 77.3607C119.465 77.9018 120.419 78.1852 121.385 78.1594C121.836 78.1594 122.287 78.1079 122.712 77.9791C123.086 77.8631 123.434 77.6956 123.743 77.4637C124.026 77.2576 124.258 76.9871 124.413 76.665C124.567 76.3558 124.645 76.0208 124.645 75.6729C124.658 75.3637 124.593 75.0545 124.464 74.7711C124.335 74.565 124.168 74.3459 123.962 74.1656ZM130.326 75.9306C130.262 75.8147 130.146 75.7374 130.004 75.7116C129.875 75.7116 129.734 75.7502 129.631 75.8275C129.45 75.9435 129.244 76.0079 129.038 76.0208C128.973 76.0208 128.896 76.0079 128.832 75.995C128.754 75.9821 128.69 75.9435 128.639 75.892C128.574 75.8275 128.523 75.7502 128.484 75.6729C128.432 75.5441 128.407 75.4153 128.419 75.2864V72.6453H130.3C130.416 72.6453 130.519 72.5938 130.597 72.5165C130.674 72.4392 130.726 72.349 130.726 72.2331V71.1122C130.726 70.9963 130.687 70.8932 130.597 70.8288C130.519 70.7515 130.416 70.7128 130.313 70.7128H128.419V68.9091C128.419 68.8061 128.381 68.6901 128.304 68.6257C128.226 68.5613 128.136 68.5226 128.033 68.5098H126.564C126.461 68.5098 126.358 68.5484 126.281 68.6257C126.204 68.703 126.152 68.8061 126.152 68.9091V70.7128H125.315C125.212 70.7128 125.108 70.7515 125.031 70.8417C124.967 70.919 124.928 71.022 124.928 71.1251V72.2459C124.928 72.349 124.967 72.4521 125.031 72.5294C125.096 72.6196 125.199 72.6582 125.315 72.6582H126.152V75.8018C126.139 76.1754 126.216 76.549 126.371 76.884C126.513 77.1674 126.693 77.4122 126.938 77.6183C127.17 77.8116 127.44 77.9533 127.737 78.0306C128.033 78.1208 128.342 78.1723 128.651 78.1723C129.051 78.1723 129.463 78.1079 129.85 77.9791C130.21 77.8631 130.532 77.657 130.79 77.3864C130.958 77.219 130.97 76.9484 130.842 76.7552L130.326 75.9306ZM138.288 70.7128H136.832C136.729 70.7128 136.639 70.7515 136.562 70.8288C136.485 70.9061 136.446 71.0091 136.446 71.1251V71.3055C136.265 71.0864 136.046 70.919 135.789 70.803C135.389 70.6098 134.951 70.5196 134.513 70.5196C133.573 70.5196 132.684 70.8932 132.014 71.5502C131.666 71.8981 131.396 72.3104 131.215 72.7613C131.009 73.2637 130.906 73.8048 130.919 74.3459C130.906 74.8871 131.009 75.4282 131.215 75.9435C131.396 76.3944 131.679 76.8067 132.014 77.1545C132.671 77.8245 133.56 78.1981 134.5 78.1981C134.939 78.211 135.377 78.1079 135.776 77.9275C136.034 77.7987 136.265 77.6312 136.446 77.4251V77.6183C136.446 77.7214 136.485 77.8245 136.562 77.8889C136.639 77.9662 136.729 78.0048 136.832 78.0048H138.288C138.507 78.0048 138.675 77.8374 138.675 77.6183V71.138C138.675 71.0349 138.636 70.9318 138.572 70.8545C138.507 70.7644 138.404 70.7128 138.288 70.7128ZM136.33 75.0417C136.253 75.2478 136.137 75.4282 135.982 75.5956C135.827 75.7502 135.66 75.8791 135.467 75.9693C135.261 76.0594 135.042 76.111 134.81 76.111C134.578 76.111 134.372 76.0594 134.165 75.9693C133.972 75.8791 133.792 75.7502 133.637 75.5956C133.483 75.441 133.367 75.2478 133.302 75.0417C133.148 74.6036 133.148 74.1269 133.302 73.6889C133.38 73.4828 133.496 73.3024 133.637 73.1478C133.792 72.9932 133.972 72.8644 134.165 72.7742C134.372 72.684 134.591 72.6325 134.81 72.6325C135.029 72.6325 135.248 72.6711 135.467 72.7742C135.66 72.8644 135.827 72.9803 135.982 73.1349C136.137 73.2895 136.253 73.4699 136.33 73.676C136.497 74.114 136.497 74.6036 136.33 75.0417ZM146.276 75.8275L145.439 75.1834C145.284 75.0545 145.129 75.0159 145 75.0674C144.885 75.119 144.781 75.1963 144.691 75.2864C144.511 75.5055 144.292 75.6987 144.06 75.8662C143.802 76.0079 143.532 76.0852 143.248 76.0594C142.913 76.0594 142.604 75.9693 142.334 75.776C142.063 75.5828 141.857 75.3251 141.754 75.003C141.677 74.784 141.638 74.565 141.638 74.3459C141.638 74.114 141.677 73.895 141.754 73.6631C141.831 73.457 141.934 73.2766 142.089 73.122C142.243 72.9674 142.411 72.8386 142.604 72.7613C142.81 72.6711 143.029 72.6196 143.261 72.6196C143.545 72.6067 143.828 72.684 144.073 72.8257C144.318 72.9803 144.524 73.1736 144.704 73.4055C144.781 73.4956 144.885 73.5729 145 73.6245C145.129 73.676 145.284 73.6374 145.439 73.5085L146.276 72.8772C146.379 72.8128 146.456 72.7098 146.495 72.5938C146.546 72.465 146.534 72.3233 146.456 72.2073C146.134 71.7048 145.696 71.2926 145.168 70.9963C144.614 70.6871 143.957 70.5196 143.223 70.5196C142.707 70.5196 142.192 70.6226 141.702 70.8159C141.239 71.0091 140.826 71.2797 140.478 71.6275C140.131 71.9754 139.847 72.3877 139.654 72.8515C139.254 73.8177 139.254 74.8999 139.654 75.8662C139.847 76.3171 140.118 76.7423 140.478 77.0772C141.213 77.7987 142.192 78.1852 143.223 78.1852C143.957 78.1852 144.614 78.0177 145.168 77.7085C145.696 77.4122 146.147 76.9999 146.469 76.4846C146.534 76.3686 146.546 76.2269 146.508 76.111C146.456 76.0079 146.379 75.9048 146.276 75.8275ZM154.032 77.3349L151.726 73.9594L153.697 71.357C153.787 71.241 153.826 71.0736 153.774 70.9318C153.735 70.8288 153.645 70.7257 153.4 70.7257H151.842C151.751 70.7257 151.661 70.7515 151.584 70.7901C151.481 70.8417 151.404 70.919 151.352 71.0091L149.78 73.2122H149.407V68.0073C149.407 67.9042 149.368 67.8012 149.291 67.7239C149.213 67.6466 149.123 67.6079 149.02 67.6079H147.564C147.461 67.6079 147.358 67.6466 147.281 67.7239C147.204 67.8012 147.165 67.8913 147.165 68.0073V77.6055C147.165 77.7214 147.204 77.8116 147.281 77.8889C147.358 77.9662 147.461 78.0048 147.564 78.0048H149.02C149.123 78.0048 149.226 77.9662 149.291 77.8889C149.368 77.8116 149.407 77.7085 149.407 77.6055V75.0674H149.819L151.532 77.6956C151.635 77.8889 151.829 78.0048 152.035 78.0048H153.671C153.916 78.0048 154.019 77.8889 154.07 77.7858C154.135 77.6312 154.122 77.4637 154.032 77.3349ZM117.726 70.7128H116.09C115.961 70.7128 115.845 70.7515 115.755 70.8417C115.678 70.919 115.626 71.0091 115.6 71.1122L114.389 75.5956H114.093L112.805 71.1122C112.779 71.022 112.74 70.9318 112.676 70.8417C112.599 70.7515 112.496 70.6999 112.38 70.6999H110.718C110.499 70.6999 110.37 70.7644 110.305 70.919C110.267 71.0478 110.267 71.1895 110.305 71.3183L112.367 77.6312C112.405 77.7214 112.444 77.8245 112.521 77.8889C112.599 77.9662 112.715 78.0048 112.831 78.0048H113.707L113.629 78.211L113.436 78.7907C113.372 78.9711 113.269 79.1257 113.114 79.2417C112.972 79.3447 112.805 79.4091 112.624 79.3963C112.47 79.3963 112.328 79.3576 112.186 79.3061C112.045 79.2417 111.916 79.1644 111.8 79.0742C111.697 78.9969 111.568 78.9582 111.426 78.9582H111.413C111.259 78.9711 111.117 79.0484 111.04 79.1901L110.524 79.9502C110.318 80.2852 110.434 80.4913 110.563 80.6073C110.846 80.865 111.169 81.0582 111.529 81.1742C111.929 81.3159 112.341 81.3803 112.753 81.3803C113.5 81.3803 114.119 81.1742 114.596 80.7748C115.085 80.3368 115.459 79.7699 115.639 79.1257L118.035 71.3183C118.087 71.1766 118.1 71.0349 118.048 70.9061C118.035 70.8159 117.945 70.7128 117.726 70.7128Z" fill="#011B33"/>
</g>
<defs>
<filter id="filter0_d_311_5920" x="0" y="0.000244141" width="357" height="274.16" filterUnits="userSpaceOnUse" color-interpolation-filters="sRGB">
<feFlood flood-opacity="0" result="BackgroundImageFix"/>
<feColorMatrix in="SourceAlpha" type="matrix" values="0 0 0 0 0 0 0 0 0 0 0 0 0 0 0 0 0 0 127 0" result="hardAlpha"/>
<feOffset dy="9"/>
<feGaussianBlur stdDeviation="25"/>
<feComposite in2="hardAlpha" operator="out"/>
<feColorMatrix type="matrix" values="0 0 0 0 0 0 0 0 0 0 0 0 0 0 0 0 0 0 0.2 0"/>
<feBlend mode="normal" in2="BackgroundImageFix" result="effect1_dropShadow_311_5920"/>
<feBlend mode="normal" in="SourceGraphic" in2="effect1_dropShadow_311_5920" result="shape"/>
</filter>
<clipPath id="clip0_311_5920">
<rect width="100" height="20" fill="white" transform="translate(74 117.16)"/>
</clipPath>
</defs>
</svg>
