<svg width="240" height="169" viewBox="0 0 240 169" fill="none" xmlns="http://www.w3.org/2000/svg">
<g filter="url(#filter0_d_311_5910)">
<rect x="40" y="34" width="159.223" height="88.6356" rx="12.17" fill="white" shape-rendering="crispEdges"/>
<path d="M57.3332 51.0658C57.8452 51.5562 58.1012 52.1692 58.1012 52.9048C58.1012 53.6404 57.8452 54.257 57.3332 54.7547C56.8211 55.2451 56.1793 55.4903 55.4076 55.4903H54.4232V58H52.8546V50.3194H55.4076C56.1793 50.3194 56.8211 50.5682 57.3332 51.0658ZM56.2514 53.7053C56.4678 53.4962 56.5759 53.2293 56.5759 52.9048C56.5759 52.5803 56.4678 52.3134 56.2514 52.1043C56.035 51.8951 55.7466 51.7906 55.386 51.7906H54.4232V54.019H55.386C55.7466 54.019 56.035 53.9145 56.2514 53.7053ZM58.9997 58V52.5911H60.4818V53.4565C60.5755 53.1897 60.745 52.9697 60.9902 52.7966C61.2426 52.6163 61.5203 52.5262 61.8232 52.5262C62.0107 52.5262 62.1765 52.5478 62.3208 52.5911V54.0948C62.0828 54.0154 61.8592 53.9758 61.6501 53.9758C61.2967 53.9758 61.0118 54.1056 60.7955 54.3652C60.5863 54.6176 60.4818 54.9674 60.4818 55.4145V58H58.9997ZM67.5777 57.3077C67.0224 57.8486 66.3517 58.119 65.5656 58.119C64.7795 58.119 64.1088 57.8486 63.5535 57.3077C62.9982 56.7596 62.7205 56.0889 62.7205 55.2955C62.7205 54.5095 62.9982 53.8424 63.5535 53.2943C64.1088 52.7461 64.7795 52.4721 65.5656 52.4721C66.3517 52.4721 67.0224 52.7461 67.5777 53.2943C68.1331 53.8424 68.4107 54.5095 68.4107 55.2955C68.4107 56.0889 68.1331 56.7596 67.5777 57.3077ZM65.5656 56.7343C65.9479 56.7343 66.2652 56.6009 66.5176 56.3341C66.7772 56.06 66.907 55.7138 66.907 55.2955C66.907 54.8773 66.7772 54.5347 66.5176 54.2679C66.2652 53.9938 65.9479 53.8568 65.5656 53.8568C65.1762 53.8568 64.8516 53.9938 64.592 54.2679C64.3396 54.5347 64.2134 54.8773 64.2134 55.2955C64.2134 55.7138 64.3396 56.06 64.592 56.3341C64.8516 56.6009 65.1762 56.7343 65.5656 56.7343ZM71.6755 58.119C70.9615 58.119 70.3593 57.8413 69.8689 57.286C69.3785 56.7307 69.1333 56.0672 69.1333 55.2955C69.1333 54.5239 69.3785 53.8604 69.8689 53.3051C70.3593 52.7498 70.9615 52.4721 71.6755 52.4721C72.0217 52.4721 72.3318 52.5442 72.6058 52.6885C72.8799 52.8327 73.089 53.0022 73.2333 53.1969V49.8866H74.7153V58H73.2333V57.3942C73.089 57.5889 72.8799 57.7584 72.6058 57.9026C72.3318 58.0469 72.0217 58.119 71.6755 58.119ZM70.994 56.3557C71.2464 56.6297 71.5781 56.7668 71.9892 56.7668C72.4003 56.7668 72.7284 56.6297 72.9736 56.3557C73.226 56.0816 73.3523 55.7283 73.3523 55.2955C73.3523 54.8628 73.226 54.5095 72.9736 54.2354C72.7284 53.9613 72.4003 53.8243 71.9892 53.8243C71.5781 53.8243 71.2464 53.9613 70.994 54.2354C70.7488 54.5095 70.6262 54.8628 70.6262 55.2955C70.6262 55.7283 70.7488 56.0816 70.994 56.3557ZM78.1249 58.119C77.4831 58.119 76.9819 57.9026 76.6213 57.4699C76.2679 57.0372 76.0912 56.4567 76.0912 55.7283V52.5911H77.5732V55.4794C77.5732 56.3377 77.8797 56.7668 78.4927 56.7668C78.8389 56.7668 79.1094 56.637 79.3041 56.3773C79.506 56.1177 79.607 55.7355 79.607 55.2306V52.5911H81.089V58H79.607V57.3834C79.2752 57.8738 78.7812 58.119 78.1249 58.119ZM85.0147 58.119C84.1998 58.119 83.5218 57.8486 82.981 57.3077C82.4401 56.7596 82.1696 56.0889 82.1696 55.2955C82.1696 54.5022 82.4401 53.8351 82.981 53.2943C83.5218 52.7461 84.1998 52.4721 85.0147 52.4721C85.7359 52.4721 86.3381 52.674 86.8213 53.0779C87.3117 53.4818 87.6326 54.0082 87.7841 54.6573H86.2479C86.0099 54.0948 85.5989 53.8135 85.0147 53.8135C84.618 53.8135 84.2935 53.9505 84.0411 54.2246C83.7887 54.4914 83.6625 54.8484 83.6625 55.2955C83.6625 55.7427 83.7887 56.1033 84.0411 56.3773C84.2935 56.6442 84.618 56.7776 85.0147 56.7776C85.5989 56.7776 86.0099 56.4963 86.2479 55.9338H87.7841C87.6326 56.5829 87.3117 57.1093 86.8213 57.5132C86.3381 57.9171 85.7359 58.119 85.0147 58.119ZM91.3349 58.0649C90.7291 58.0649 90.2315 57.899 89.8421 57.5673C89.4598 57.2283 89.2687 56.7415 89.2687 56.1069V53.8892H88.1761V52.5911H89.2687V51.0874H90.7508V52.5911H92.2761V53.8892H90.7508V55.8148C90.7508 56.1465 90.8229 56.3845 90.9671 56.5288C91.1114 56.6658 91.3457 56.7343 91.6703 56.7343C91.9011 56.7343 92.103 56.7019 92.2761 56.637V57.9459C92.0164 58.0252 91.7027 58.0649 91.3349 58.0649ZM95.9357 58V50.3194H98.8781C99.5777 50.3194 100.144 50.5357 100.577 50.9684C101.016 51.4011 101.236 51.942 101.236 52.5911C101.236 53.6008 100.71 54.2679 99.657 54.5924L102.416 58H100.522L97.8829 54.7655H97.5043V58H95.9357ZM97.5043 53.4241H98.6942C98.9971 53.4241 99.2351 53.3519 99.4082 53.2077C99.5885 53.0563 99.6787 52.8507 99.6787 52.5911C99.6787 52.3315 99.5885 52.1295 99.4082 51.9853C99.2351 51.8338 98.9971 51.7581 98.6942 51.7581H97.5043V53.4241ZM104.879 58.119C104.165 58.119 103.563 57.8413 103.072 57.286C102.582 56.7307 102.337 56.0672 102.337 55.2955C102.337 54.5239 102.582 53.8604 103.072 53.3051C103.563 52.7498 104.165 52.4721 104.879 52.4721C105.225 52.4721 105.535 52.5442 105.809 52.6885C106.083 52.8327 106.293 53.0022 106.437 53.1969V52.5911H107.919V58H106.437V57.3942C106.293 57.5889 106.083 57.7584 105.809 57.9026C105.535 58.0469 105.225 58.119 104.879 58.119ZM104.197 56.3557C104.45 56.6297 104.782 56.7668 105.193 56.7668C105.604 56.7668 105.932 56.6297 106.177 56.3557C106.43 56.0816 106.556 55.7283 106.556 55.2955C106.556 54.8628 106.43 54.5095 106.177 54.2354C105.932 53.9613 105.604 53.8243 105.193 53.8243C104.782 53.8243 104.45 53.9613 104.197 54.2354C103.952 54.5095 103.83 54.8628 103.83 55.2955C103.83 55.7283 103.952 56.0816 104.197 56.3557ZM111.978 58.0649C111.372 58.0649 110.874 57.899 110.485 57.5673C110.102 57.2283 109.911 56.7415 109.911 56.1069V53.8892H108.819V52.5911H109.911V51.0874H111.393V52.5911H112.919V53.8892H111.393V55.8148C111.393 56.1465 111.465 56.3845 111.61 56.5288C111.754 56.6658 111.988 56.7343 112.313 56.7343C112.544 56.7343 112.746 56.7019 112.919 56.637V57.9459C112.659 58.0252 112.345 58.0649 111.978 58.0649ZM114.712 51.704C114.459 51.704 114.239 51.6139 114.052 51.4336C113.864 51.2461 113.771 51.0225 113.771 50.7629C113.771 50.5033 113.864 50.2833 114.052 50.103C114.239 49.9155 114.459 49.8217 114.712 49.8217C114.979 49.8217 115.202 49.9155 115.383 50.103C115.57 50.2833 115.664 50.5033 115.664 50.7629C115.664 51.0225 115.57 51.2461 115.383 51.4336C115.202 51.6139 114.979 51.704 114.712 51.704ZM113.976 58V52.5911H115.458V58H113.976ZM116.881 58V52.5911H118.363V53.2077C118.695 52.7173 119.211 52.4721 119.91 52.4721C120.559 52.4721 121.068 52.6885 121.436 53.1212C121.811 53.5467 121.998 54.1164 121.998 54.8304V58H120.516V55.0792C120.516 54.6825 120.433 54.376 120.267 54.1597C120.101 53.9361 119.867 53.8243 119.564 53.8243C119.204 53.8243 118.912 53.9541 118.688 54.2138C118.472 54.4734 118.363 54.8556 118.363 55.3605V58H116.881ZM125.878 60.3691C125.128 60.3691 124.515 60.178 124.039 59.7958C123.563 59.4135 123.296 58.9267 123.238 58.3354H124.688C124.875 58.869 125.283 59.1359 125.91 59.1359C126.256 59.1359 126.545 59.0241 126.776 58.8005C127.014 58.577 127.133 58.2632 127.133 57.8594V57.2211C126.981 57.4303 126.765 57.6033 126.484 57.7404C126.202 57.8702 125.896 57.9351 125.564 57.9351C124.857 57.9351 124.255 57.6719 123.758 57.1454C123.26 56.6117 123.011 55.9663 123.011 55.209C123.011 54.4445 123.26 53.7991 123.758 53.2726C124.255 52.7389 124.857 52.4721 125.564 52.4721C125.903 52.4721 126.21 52.5406 126.484 52.6776C126.765 52.8074 126.981 52.9805 127.133 53.1969V52.5911H128.615V57.6646C128.615 58.5806 128.351 59.2585 127.825 59.6984C127.306 60.1455 126.657 60.3691 125.878 60.3691ZM124.904 56.2042C125.171 56.4639 125.496 56.5937 125.878 56.5937C126.26 56.5937 126.585 56.4639 126.851 56.2042C127.118 55.9446 127.252 55.6129 127.252 55.209C127.252 54.8051 127.118 54.4734 126.851 54.2138C126.585 53.9541 126.26 53.8243 125.878 53.8243C125.496 53.8243 125.171 53.9541 124.904 54.2138C124.637 54.4734 124.504 54.8051 124.504 55.209C124.504 55.6129 124.637 55.9446 124.904 56.2042Z" fill="#180101"/>
<path d="M62.1748 72.979C62.3772 72.3561 63.2584 72.3561 63.4608 72.979L65.0948 78.0077C65.1853 78.2863 65.4449 78.4749 65.7378 78.4749H71.0253C71.6803 78.4749 71.9526 79.313 71.4227 79.698L67.145 82.8059C66.9081 82.9781 66.8089 83.2833 66.8994 83.5619L68.5333 88.5906C68.7357 89.2135 68.0228 89.7315 67.4929 89.3465L63.2152 86.2386C62.9783 86.0664 62.6574 86.0664 62.4204 86.2386L58.1427 89.3465C57.6128 89.7315 56.8999 89.2135 57.1023 88.5906L58.7362 83.5619C58.8267 83.2833 58.7276 82.9781 58.4906 82.8059L54.2129 79.698C53.683 79.313 53.9554 78.4749 54.6103 78.4749H59.8978C60.1907 78.4749 60.4503 78.2863 60.5409 78.0077L62.1748 72.979Z" fill="#9CADEF"/>
<path d="M90.5713 72.979C90.7737 72.3561 91.6549 72.3561 91.8573 72.979L93.4913 78.0077C93.5818 78.2863 93.8414 78.4749 94.1343 78.4749H99.4218C100.077 78.4749 100.349 79.313 99.8192 79.698L95.5415 82.8059C95.3045 82.9781 95.2054 83.2833 95.2959 83.5619L96.9298 88.5906C97.1322 89.2135 96.4193 89.7315 95.8894 89.3465L91.6117 86.2386C91.3747 86.0664 91.0539 86.0664 90.8169 86.2386L86.5392 89.3465C86.0093 89.7315 85.2964 89.2135 85.4988 88.5906L87.1327 83.5619C87.2232 83.2833 87.1241 82.9781 86.8871 82.8059L82.6094 79.698C82.0795 79.313 82.3518 78.4749 83.0068 78.4749H88.2943C88.5872 78.4749 88.8468 78.2863 88.9373 78.0077L90.5713 72.979Z" fill="#9CADEF"/>
<path d="M118.969 72.979C119.171 72.3561 120.052 72.3561 120.255 72.979L121.889 78.0077C121.979 78.2863 122.239 78.4749 122.532 78.4749H127.819C128.474 78.4749 128.747 79.313 128.217 79.698L123.939 82.8059C123.702 82.9781 123.603 83.2833 123.693 83.5619L125.327 88.5906C125.53 89.2135 124.817 89.7315 124.287 89.3465L120.009 86.2386C119.772 86.0664 119.451 86.0664 119.214 86.2386L114.937 89.3465C114.407 89.7315 113.694 89.2135 113.896 88.5906L115.53 83.5619C115.621 83.2833 115.522 82.9781 115.285 82.8059L111.007 79.698C110.477 79.313 110.749 78.4749 111.404 78.4749H116.692C116.985 78.4749 117.244 78.2863 117.335 78.0077L118.969 72.979Z" fill="#9CADEF"/>
<path d="M147.365 72.979C147.568 72.3561 148.449 72.3561 148.651 72.979L150.285 78.0077C150.376 78.2863 150.635 78.4749 150.928 78.4749H156.216C156.871 78.4749 157.143 79.313 156.613 79.698L152.335 82.8059C152.098 82.9781 151.999 83.2833 152.09 83.5619L153.724 88.5906C153.926 89.2135 153.213 89.7315 152.683 89.3465L148.406 86.2386C148.169 86.0664 147.848 86.0664 147.611 86.2386L143.333 89.3465C142.803 89.7315 142.09 89.2135 142.293 88.5906L143.927 83.5619C144.017 83.2833 143.918 82.9781 143.681 82.8059L139.403 79.698C138.873 79.313 139.146 78.4749 139.801 78.4749H145.088C145.381 78.4749 145.641 78.2863 145.731 78.0077L147.365 72.979Z" fill="#9CADEF"/>
<path d="M175.762 72.979C175.964 72.3561 176.845 72.3561 177.048 72.979L178.682 78.0077C178.772 78.2863 179.032 78.4749 179.325 78.4749H184.612C185.267 78.4749 185.54 79.313 185.01 79.698L180.732 82.8059C180.495 82.9781 180.396 83.2833 180.486 83.5619L182.12 88.5906C182.323 89.2135 181.61 89.7315 181.08 89.3465L176.802 86.2386C176.565 86.0664 176.244 86.0664 176.007 86.2386L171.73 89.3465C171.2 89.7315 170.487 89.2135 170.689 88.5906L172.323 83.5619C172.414 83.2833 172.314 82.9781 172.078 82.8059L167.8 79.698C167.27 79.313 167.542 78.4749 168.197 78.4749H173.485C173.778 78.4749 174.037 78.2863 174.128 78.0077L175.762 72.979Z" fill="#9CADEF"/>
<path d="M54.168 107.716C53.6667 107.716 53.232 107.558 52.864 107.244C52.496 106.924 52.3067 106.553 52.296 106.132H52.872C52.936 106.43 53.088 106.678 53.328 106.876C53.5733 107.073 53.8533 107.172 54.168 107.172C54.5413 107.172 54.856 107.044 55.112 106.788C55.368 106.526 55.496 106.212 55.496 105.844C55.496 105.47 55.3733 105.156 55.128 104.9C54.888 104.644 54.5813 104.516 54.208 104.516C53.7227 104.516 53.344 104.708 53.072 105.092L52.52 104.932L53.08 101.956H55.704V102.508H53.544L53.208 104.308C53.48 104.084 53.8293 103.972 54.256 103.972C54.784 103.972 55.2187 104.158 55.56 104.532C55.9013 104.905 56.072 105.372 56.072 105.932C56.072 106.417 55.8853 106.836 55.512 107.188C55.144 107.54 54.696 107.716 54.168 107.716ZM56.5744 108.516L59.6624 101.956H60.1984L57.1104 108.516H56.5744ZM62.543 107.716C62.0417 107.716 61.607 107.558 61.239 107.244C60.871 106.924 60.6817 106.553 60.671 106.132H61.247C61.311 106.43 61.463 106.678 61.703 106.876C61.9483 107.073 62.2283 107.172 62.543 107.172C62.9163 107.172 63.231 107.044 63.487 106.788C63.743 106.526 63.871 106.212 63.871 105.844C63.871 105.47 63.7483 105.156 63.503 104.9C63.263 104.644 62.9563 104.516 62.583 104.516C62.0977 104.516 61.719 104.708 61.447 105.092L60.895 104.932L61.455 101.956H64.079V102.508H61.919L61.583 104.308C61.855 104.084 62.2043 103.972 62.631 103.972C63.159 103.972 63.5937 104.158 63.935 104.532C64.2763 104.905 64.447 105.372 64.447 105.932C64.447 106.417 64.2603 106.836 63.887 107.188C63.519 107.54 63.071 107.716 62.543 107.716ZM68.6304 107.716C68.2037 107.716 67.8437 107.612 67.5504 107.404C67.257 107.196 67.0944 106.897 67.0624 106.508H67.6224C67.7344 106.977 68.0704 107.212 68.6304 107.212C68.8757 107.212 69.0784 107.161 69.2384 107.06C69.3984 106.953 69.4784 106.804 69.4784 106.612C69.4784 106.436 69.4197 106.292 69.3024 106.18C69.1904 106.062 69.009 105.969 68.7584 105.9L68.2384 105.764C67.5504 105.577 67.2064 105.19 67.2064 104.604C67.2064 104.284 67.329 104.03 67.5744 103.844C67.8197 103.652 68.1344 103.556 68.5184 103.556C68.9237 103.556 69.249 103.662 69.4944 103.876C69.745 104.089 69.8864 104.353 69.9184 104.668H69.3664C69.3077 104.476 69.2037 104.326 69.0544 104.22C68.905 104.108 68.7264 104.052 68.5184 104.052C68.305 104.052 68.1264 104.102 67.9824 104.204C67.8384 104.305 67.7664 104.438 67.7664 104.604C67.7664 104.764 67.817 104.894 67.9184 104.996C68.0197 105.097 68.1877 105.18 68.4224 105.244L69.0384 105.404C69.3584 105.484 69.6037 105.625 69.7744 105.828C69.9504 106.025 70.0384 106.273 70.0384 106.572C70.0384 106.956 69.9077 107.244 69.6464 107.436C69.3904 107.622 69.0517 107.716 68.6304 107.716ZM72.4559 107.676C72.1199 107.676 71.8453 107.58 71.6319 107.388C71.4239 107.19 71.3199 106.902 71.3199 106.524V104.164H70.4639V103.636H71.3199V102.524H71.8799V103.636H73.0479V104.164H71.8799V106.476C71.8799 106.721 71.9333 106.897 72.0399 107.004C72.1519 107.105 72.3199 107.156 72.5439 107.156C72.7466 107.156 72.9146 107.126 73.0479 107.068V107.572C72.8719 107.641 72.6746 107.676 72.4559 107.676ZM75.5628 107.716C75.0028 107.716 74.5308 107.513 74.1468 107.108C73.7628 106.702 73.5708 106.212 73.5708 105.636C73.5708 105.06 73.7628 104.569 74.1468 104.164C74.5308 103.758 75.0028 103.556 75.5628 103.556C75.8668 103.556 76.1521 103.625 76.4188 103.764C76.6908 103.902 76.8988 104.084 77.0428 104.308V103.636H77.6028V107.636H77.0428V106.964C76.8988 107.188 76.6908 107.369 76.4188 107.508C76.1521 107.646 75.8668 107.716 75.5628 107.716ZM74.5548 106.748C74.8321 107.046 75.1868 107.196 75.6188 107.196C76.0508 107.196 76.4028 107.046 76.6748 106.748C76.9521 106.444 77.0908 106.073 77.0908 105.636C77.0908 105.198 76.9521 104.83 76.6748 104.532C76.4028 104.228 76.0508 104.076 75.6188 104.076C75.1868 104.076 74.8321 104.228 74.5548 104.532C74.2828 104.83 74.1468 105.198 74.1468 105.636C74.1468 106.073 74.2828 106.444 74.5548 106.748ZM78.9771 107.636V103.636H79.5371V104.46C79.6224 104.193 79.7744 103.982 79.9931 103.828C80.2117 103.673 80.4464 103.596 80.6971 103.596C80.8091 103.596 80.9051 103.606 80.9851 103.628V104.212C80.8891 104.174 80.7771 104.156 80.6491 104.156C80.3664 104.156 80.1104 104.284 79.8811 104.54C79.6517 104.796 79.5371 105.158 79.5371 105.628V107.636H78.9771ZM82.9741 107.716C82.5475 107.716 82.1875 107.612 81.8941 107.404C81.6008 107.196 81.4381 106.897 81.4061 106.508H81.9661C82.0781 106.977 82.4141 107.212 82.9741 107.212C83.2195 107.212 83.4221 107.161 83.5821 107.06C83.7421 106.953 83.8221 106.804 83.8221 106.612C83.8221 106.436 83.7635 106.292 83.6461 106.18C83.5341 106.062 83.3528 105.969 83.1021 105.9L82.5821 105.764C81.8941 105.577 81.5501 105.19 81.5501 104.604C81.5501 104.284 81.6728 104.03 81.9181 103.844C82.1635 103.652 82.4781 103.556 82.8621 103.556C83.2675 103.556 83.5928 103.662 83.8381 103.876C84.0888 104.089 84.2301 104.353 84.2621 104.668H83.7101C83.6515 104.476 83.5475 104.326 83.3981 104.22C83.2488 104.108 83.0701 104.052 82.8621 104.052C82.6488 104.052 82.4701 104.102 82.3261 104.204C82.1821 104.305 82.1101 104.438 82.1101 104.604C82.1101 104.764 82.1608 104.894 82.2621 104.996C82.3635 105.097 82.5315 105.18 82.7661 105.244L83.3821 105.404C83.7021 105.484 83.9475 105.625 84.1181 105.828C84.2941 106.025 84.3821 106.273 84.3821 106.572C84.3821 106.956 84.2515 107.244 83.9901 107.436C83.7341 107.622 83.3955 107.716 82.9741 107.716Z" fill="black"/>
</g>
<defs>
<filter id="filter0_d_311_5910" x="0" y="0" width="239.223" height="168.636" filterUnits="userSpaceOnUse" color-interpolation-filters="sRGB">
<feFlood flood-opacity="0" result="BackgroundImageFix"/>
<feColorMatrix in="SourceAlpha" type="matrix" values="0 0 0 0 0 0 0 0 0 0 0 0 0 0 0 0 0 0 127 0" result="hardAlpha"/>
<feOffset dy="6"/>
<feGaussianBlur stdDeviation="20"/>
<feComposite in2="hardAlpha" operator="out"/>
<feColorMatrix type="matrix" values="0 0 0 0 0 0 0 0 0 0 0 0 0 0 0 0 0 0 0.11 0"/>
<feBlend mode="normal" in2="BackgroundImageFix" result="effect1_dropShadow_311_5910"/>
<feBlend mode="normal" in="SourceGraphic" in2="effect1_dropShadow_311_5910" result="shape"/>
</filter>
</defs>
</svg>
